<svg width="32" height="32" viewBox="0 0 32 32" fill="none" xmlns="http://www.w3.org/2000/svg">
<path fill-rule="evenodd" clip-rule="evenodd" d="M3.00004 10C3.00004 8.89543 3.89547 8 5.00004 8H27C28.1046 8 29 8.89543 29 10V26C29 27.1046 28.1046 28 27 28H5.00004C3.89547 28 3.00004 27.1046 3.00004 26V10ZM27 10H5.00004V26H27V10Z" fill="#272932"/>
<path fill-rule="evenodd" clip-rule="evenodd" d="M10.8787 4.87868C11.4413 4.31607 12.2044 4 13 4H19C19.7957 4 20.5588 4.31607 21.1214 4.87868C21.684 5.44129 22 6.20435 22 7V9C22 9.55228 21.5523 10 21 10C20.4478 10 20 9.55228 20 9V7C20 6.73478 19.8947 6.48043 19.7071 6.29289C19.5196 6.10536 19.2653 6 19 6H13C12.7348 6 12.4805 6.10536 12.2929 6.29289C12.1054 6.48043 12 6.73478 12 7V9C12 9.55228 11.5523 10 11 10C10.4478 10 10 9.55228 10 9V7C10 6.20435 10.3161 5.44129 10.8787 4.87868Z" fill="#272932"/>
<path fill-rule="evenodd" clip-rule="evenodd" d="M28.8657 15.2869C29.1422 15.7649 28.9788 16.3767 28.5007 16.6532C24.7015 18.8503 20.3894 20.0049 16.0007 20C11.6103 20.0111 7.29569 18.8559 3.49818 16.6524C3.02048 16.3753 2.85792 15.7633 3.1351 15.2856C3.41227 14.8079 4.02421 14.6454 4.50191 14.9226C7.99352 16.9485 11.9607 18.0105 15.9974 18L16.0012 18C20.0382 18.0048 24.0048 16.9429 27.4994 14.9218C27.9775 14.6453 28.5892 14.8088 28.8657 15.2869Z" fill="#272932"/>
<path fill-rule="evenodd" clip-rule="evenodd" d="M13.5 15C13.5 14.4477 13.9478 14 14.5 14H17.5C18.0523 14 18.5 14.4477 18.5 15C18.5 15.5523 18.0523 16 17.5 16H14.5C13.9478 16 13.5 15.5523 13.5 15Z" fill="#272932"/>
</svg>
