<svg width="32" height="32" viewBox="0 0 32 32" fill="none" xmlns="http://www.w3.org/2000/svg">
<path fill-rule="evenodd" clip-rule="evenodd" d="M15.4453 3.16795C15.7812 2.94402 16.2188 2.94402 16.5547 3.16795L28.5547 11.1679C28.8329 11.3534 29 11.6656 29 12V25C29 25.5304 28.7892 26.0391 28.4142 26.4142C28.0391 26.7893 27.5304 27 27 27H4.99996C4.46952 27 3.96082 26.7893 3.58574 26.4142C3.21067 26.0391 2.99996 25.5304 2.99996 25V12C2.99996 11.6656 3.16706 11.3534 3.44526 11.1679L15.4453 3.16795ZM4.99996 12.5352V25H27V12.5352L16 5.20185L4.99996 12.5352Z" fill="#272932"/>
<path fill-rule="evenodd" clip-rule="evenodd" d="M14.6292 18.4229C14.9479 18.874 14.8406 19.498 14.3895 19.8167L4.88952 26.5292C4.43847 26.8479 3.81446 26.7406 3.49576 26.2896C3.17705 25.8385 3.28434 25.2145 3.73539 24.8958L13.2354 18.1833C13.6864 17.8646 14.3105 17.9719 14.6292 18.4229Z" fill="#272932"/>
<path fill-rule="evenodd" clip-rule="evenodd" d="M17.3708 18.4229C17.6895 17.9719 18.3135 17.8646 18.7645 18.1833L28.2645 24.8958C28.7156 25.2145 28.8229 25.8385 28.5042 26.2896C28.1855 26.7406 27.5614 26.8479 27.1104 26.5292L17.6104 19.8167C17.1593 19.498 17.0521 18.874 17.3708 18.4229Z" fill="#272932"/>
<path fill-rule="evenodd" clip-rule="evenodd" d="M3.18587 11.4193C3.50661 10.9696 4.1311 10.8652 4.5807 11.1859L14.1326 18H17.8673L27.4192 11.1859C27.8688 10.8652 28.4933 10.9696 28.814 11.4193C29.1348 11.8689 29.0303 12.4933 28.5807 12.8141L18.7682 19.8141C18.5987 19.935 18.3957 20 18.1875 20H13.8125C13.6042 20 13.4012 19.935 13.2317 19.8141L3.41921 12.8141C2.9696 12.4933 2.86513 11.8689 3.18587 11.4193Z" fill="#272932"/>
</svg>
