<svg width="32" height="32" viewBox="0 0 32 32" fill="none" xmlns="http://www.w3.org/2000/svg">
<g clip-path="url(#clip0_2_2877)">
<path d="M21 9.49998C21 9.79665 20.912 10.0867 20.7472 10.3333C20.5823 10.58 20.3481 10.7723 20.074 10.8858C19.7999 10.9993 19.4983 11.029 19.2073 10.9712C18.9163 10.9133 18.6491 10.7704 18.4393 10.5606C18.2295 10.3509 18.0867 10.0836 18.0288 9.79261C17.9709 9.50164 18.0006 9.20004 18.1141 8.92595C18.2277 8.65186 18.4199 8.41759 18.6666 8.25277C18.9133 8.08795 19.2033 7.99998 19.5 7.99998C19.8978 7.99998 20.2793 8.15801 20.5606 8.43932C20.8419 8.72062 21 9.10215 21 9.49998ZM27.09 17.955C24.6687 22.3175 20.16 24.675 13.685 24.9675L10.935 31.3937C10.8577 31.5742 10.729 31.7279 10.5649 31.8357C10.4009 31.9435 10.2087 32.0006 10.0125 32H9.9487C9.74264 31.9871 9.54562 31.9107 9.3847 31.7813C9.22378 31.652 9.10684 31.476 9.04995 31.2775L7.19995 24.7987L0.724952 22.945C0.525916 22.8891 0.349098 22.7729 0.218836 22.6123C0.088573 22.4518 0.0112687 22.2548 -0.00243787 22.0485C-0.0161444 21.8422 0.0344207 21.6368 0.142298 21.4604C0.250175 21.2841 0.410062 21.1455 0.599952 21.0637L7.0262 18.3137C7.31995 11.8412 9.67745 7.33373 14.0375 4.91123C17.1312 3.19373 20.63 2.93123 23.0225 3.01373C25.3525 3.09373 27.5225 3.54748 27.88 3.76373C28.0259 3.84977 28.1477 3.97149 28.2337 4.11748C28.445 4.47373 28.9 6.64373 28.9837 8.97373C29.0687 11.3612 28.8075 14.8612 27.09 17.955ZM20.1925 21.58C19.037 21.1395 18.0308 20.3792 17.2915 19.388C16.5522 18.3967 16.1103 17.2156 16.0175 15.9825C14.7846 15.8898 13.6037 15.4481 12.6127 14.709C11.6217 13.9699 10.8615 12.9639 10.4212 11.8087C9.55037 13.7912 9.07954 16.1908 9.0087 19.0075C9.00427 19.1993 8.94476 19.3858 8.83727 19.5447C8.72977 19.7036 8.57883 19.8282 8.40245 19.9037L3.9787 21.7962L8.28495 23.0287C8.44834 23.0756 8.59709 23.1633 8.71716 23.2836C8.83724 23.4038 8.92467 23.5528 8.9712 23.7162L10.2012 28.0212L12.0962 23.5962C12.1719 23.4201 12.2966 23.2694 12.4555 23.1621C12.6144 23.0549 12.8008 22.9955 12.9925 22.9912C15.8066 22.9237 18.2066 22.4533 20.1925 21.58ZM26.5525 5.44623C24.7837 5.07123 18.54 4.07123 14.015 7.28998C13.266 7.82436 12.5932 8.45808 12.015 9.17373C11.9676 9.82673 12.0633 10.4822 12.2953 11.0944C12.5274 11.7066 12.8903 12.2608 13.3586 12.7184C13.827 13.1759 14.3895 13.5257 15.007 13.7434C15.6244 13.961 16.282 14.0414 16.9337 13.9787C17.0805 13.9646 17.2286 13.9831 17.3675 14.0329C17.5063 14.0828 17.6324 14.1627 17.7367 14.267C17.841 14.3713 17.9209 14.4974 17.9707 14.6362C18.0206 14.775 18.0391 14.9232 18.025 15.07C17.9624 15.7219 18.043 16.3797 18.261 16.9973C18.479 17.6149 18.8291 18.1775 19.287 18.6457C19.745 19.114 20.2996 19.4767 20.9121 19.7084C21.5247 19.9402 22.1805 20.0354 22.8337 19.9875C23.5467 19.4091 24.1775 18.7363 24.7087 17.9875C27.9275 13.4662 26.9275 7.21748 26.5525 5.44623Z" fill="#2A2B2A"/>
</g>
<defs>
<clipPath id="clip0_2_2877">
<rect width="32" height="32" fill="white"/>
</clipPath>
</defs>
</svg>
