<svg width="32" height="32" viewBox="0 0 32 32" fill="none" xmlns="http://www.w3.org/2000/svg">
<path d="M28.9838 4.01622C28.3314 3.36557 27.4476 3.00018 26.5263 3.00018C25.6049 3.00018 24.7211 3.36557 24.0688 4.01622L2.29252 25.8C2.16637 25.9262 2.07629 26.0839 2.03166 26.2567C1.98702 26.4295 1.98945 26.6111 2.03868 26.7827C2.08791 26.9542 2.18216 27.1095 2.31164 27.2323C2.44112 27.3552 2.60112 27.4411 2.77502 27.4812C4.25881 27.8252 5.7769 27.9992 7.30002 28C11.4188 28 15.54 26.725 19.4188 24.2212C23.3888 21.6587 25.6925 18.7437 25.7938 18.62C25.9445 18.4276 26.0195 18.1868 26.0048 17.9429C25.99 17.6991 25.8865 17.469 25.7138 17.2962L23.165 14.75L28.9838 8.92998C29.6337 8.2775 29.9987 7.39406 29.9987 6.4731C29.9987 5.55214 29.6337 4.6687 28.9838 4.01622ZM23.6375 18.055C22.0514 19.7836 20.251 21.3026 18.28 22.575C13.9763 25.3375 9.53752 26.44 5.05877 25.8625L18.25 12.6662L23.6375 18.055ZM27.57 7.51747L21.75 13.3375L19.665 11.25L25.4838 5.42997C25.7604 5.15332 26.1357 4.9979 26.5269 4.9979C26.9181 4.9979 27.2934 5.15332 27.57 5.42997C27.8467 5.70663 28.0021 6.08185 28.0021 6.4731C28.0021 6.86435 27.8467 7.23957 27.57 7.51622V7.51747Z" fill="#2A2B2A"/>
</svg>
