<svg width="32" height="32" viewBox="0 0 32 32" fill="none" xmlns="http://www.w3.org/2000/svg">
<path d="M25.7501 3.33625C25.656 3.23027 25.5405 3.14548 25.4112 3.08751C25.2819 3.02954 25.1418 2.99971 25.0001 3H7.0001C6.85819 2.99995 6.71791 3.03011 6.58855 3.08846C6.4592 3.14681 6.34375 3.23202 6.24987 3.33844C6.15599 3.44485 6.08583 3.57002 6.04406 3.70564C6.00229 3.84126 5.98986 3.98421 6.0076 4.125L8.90135 28.25C8.96228 28.7337 9.19775 29.1784 9.56351 29.5006C9.92927 29.8229 10.4001 30.0005 10.8876 30H21.1126C21.6018 30.0001 22.0741 29.821 22.4401 29.4964C22.8061 29.1719 23.0405 28.7244 23.0988 28.2388L25.9926 4.125C26.0106 3.98385 25.9983 3.84047 25.9565 3.70445C25.9147 3.56843 25.8443 3.4429 25.7501 3.33625ZM23.8751 5L23.5126 8H8.4876L8.1251 5H23.8751ZM21.1126 28H10.8876L8.7276 10H23.2726L21.1126 28Z" fill="#272932"/>
</svg>
