<svg width="32" height="32" viewBox="0 0 32 32" fill="none" xmlns="http://www.w3.org/2000/svg">
<path d="M3.00005 16C3.0027 13.6139 3.95176 11.3262 5.63902 9.63897C7.32627 7.95172 9.61392 7.00265 12.0001 7.00001H25.5863L24.2926 5.70751C24.1049 5.51987 23.9995 5.26537 23.9995 5.00001C23.9995 4.73464 24.1049 4.48015 24.2926 4.29251C24.4802 4.10487 24.7347 3.99945 25.0001 3.99945C25.2654 3.99945 25.5199 4.10487 25.7076 4.29251L28.7076 7.29251C28.8005 7.38538 28.8743 7.49567 28.9246 7.61707C28.9749 7.73846 29.0008 7.86859 29.0008 8.00001C29.0008 8.13142 28.9749 8.26155 28.9246 8.38295C28.8743 8.50434 28.8005 8.61463 28.7076 8.70751L25.7076 11.7075C25.5199 11.8951 25.2654 12.0006 25.0001 12.0006C24.7347 12.0006 24.4802 11.8951 24.2926 11.7075C24.1049 11.5199 23.9995 11.2654 23.9995 11C23.9995 10.7346 24.1049 10.4801 24.2926 10.2925L25.5863 9.00001H12.0001C10.1441 9.00199 8.36482 9.74013 7.0525 11.0525C5.74018 12.3648 5.00204 14.1441 5.00005 16C5.00005 16.2652 4.8947 16.5196 4.70716 16.7071C4.51962 16.8947 4.26527 17 4.00005 17C3.73484 17 3.48048 16.8947 3.29295 16.7071C3.10541 16.5196 3.00005 16.2652 3.00005 16ZM28.0001 15C27.7348 15 27.4805 15.1054 27.2929 15.2929C27.1054 15.4804 27.0001 15.7348 27.0001 16C26.9981 17.8559 26.2599 19.6352 24.9476 20.9476C23.6353 22.2599 21.856 22.998 20.0001 23H6.4138L7.70755 21.7075C7.80046 21.6146 7.87416 21.5043 7.92445 21.3829C7.97473 21.2615 8.00061 21.1314 8.00061 21C8.00061 20.8686 7.97473 20.7385 7.92445 20.6171C7.87416 20.4957 7.80046 20.3854 7.70755 20.2925C7.61464 20.1996 7.50434 20.1259 7.38295 20.0756C7.26156 20.0253 7.13145 19.9994 7.00005 19.9994C6.86866 19.9994 6.73855 20.0253 6.61716 20.0756C6.49576 20.1259 6.38546 20.1996 6.29255 20.2925L3.29255 23.2925C3.19958 23.3854 3.12582 23.4957 3.07549 23.6171C3.02517 23.7385 2.99927 23.8686 2.99927 24C2.99927 24.1314 3.02517 24.2615 3.07549 24.3829C3.12582 24.5043 3.19958 24.6146 3.29255 24.7075L6.29255 27.7075C6.38546 27.8004 6.49576 27.8741 6.61716 27.9244C6.73855 27.9747 6.86866 28.0006 7.00005 28.0006C7.13145 28.0006 7.26156 27.9747 7.38295 27.9244C7.50434 27.8741 7.61464 27.8004 7.70755 27.7075C7.80046 27.6146 7.87416 27.5043 7.92445 27.3829C7.97473 27.2615 8.00061 27.1314 8.00061 27C8.00061 26.8686 7.97473 26.7385 7.92445 26.6171C7.87416 26.4957 7.80046 26.3854 7.70755 26.2925L6.4138 25H20.0001C22.3862 24.9974 24.6738 24.0483 26.3611 22.361C28.0483 20.6738 28.9974 18.3861 29.0001 16C29.0001 15.7348 28.8947 15.4804 28.7072 15.2929C28.5196 15.1054 28.2653 15 28.0001 15Z" fill="#2A2B2A"/>
</svg>
