<svg width="32" height="32" viewBox="0 0 32 32" fill="none" xmlns="http://www.w3.org/2000/svg">
<path fill-rule="evenodd" clip-rule="evenodd" d="M5.43676 4.17378C5.89307 3.86266 6.5152 3.98036 6.82632 4.43667L21.8263 26.4367C22.1374 26.893 22.0197 27.5151 21.5634 27.8262C21.1071 28.1374 20.485 28.0197 20.1739 27.5633L5.17387 5.56334C4.86275 5.10703 4.98045 4.4849 5.43676 4.17378Z" fill="#272932"/>
<path fill-rule="evenodd" clip-rule="evenodd" d="M10.4368 4.17378C10.8931 3.86266 11.5152 3.98036 11.8263 4.43667L26.8263 26.4367C27.1374 26.893 27.0197 27.5151 26.5634 27.8262C26.1071 28.1374 25.485 28.0197 25.1739 27.5633L10.1739 5.56334C9.86275 5.10703 9.98045 4.4849 10.4368 4.17378Z" fill="#272932"/>
<path fill-rule="evenodd" clip-rule="evenodd" d="M26.6727 4.26007C26.264 3.88856 25.6316 3.91868 25.2601 4.32733L16.7601 13.6773C16.3885 14.086 16.4187 14.7184 16.8273 15.0899C17.236 15.4615 17.8684 15.4313 18.2399 15.0227L26.7399 5.67268C27.1114 5.26402 27.0813 4.63157 26.6727 4.26007ZM15.1727 16.9101C14.764 16.5386 14.1316 16.5687 13.7601 16.9773L5.26005 26.3273C4.88855 26.736 4.91866 27.3684 5.32732 27.7399C5.73598 28.1115 6.36843 28.0813 6.73993 27.6727L15.2399 18.3227C15.6114 17.914 15.5813 17.2816 15.1727 16.9101Z" fill="#272932"/>
</svg>
